<svg height="48pt" viewBox="0 0 48 48" width="48pt" xmlns="http://www.w3.org/2000/svg" xmlns:xlink="http://www.w3.org/1999/xlink"><linearGradient id="a" gradientUnits="userSpaceOnUse" x1=".625008" x2="44.767712" y1="3.750018" y2="45.730078"><stop offset="0" stop-color="#0ff"/><stop offset=".98260869565" stop-color="#a553a8"/></linearGradient><path d="m43 12.55c0 1.104.896 2 2 2 1.104 0 2-.896 2-2v-6.55c0-2.76-2.24-5-5-5h-36c-2.76 0-5 2.24-5 5v19c0 1.104.896 2 2 2 1.104 0 2-.896 2-2v-17c0-1.656 1.344-3 3-3h32c1.656 0 3 1.344 3 3zm-38 22.9c0-1.104-.896-2-2-2-1.104 0-2 .896-2 2v6.55c0 2.76 2.24 5 5 5h36c2.76 0 5-2.24 5-5v-19.82c0-1.104-.896-2-2-2-1.104 0-2 .896-2 2v17.82c0 1.656-1.344 3-3 3h-32c-1.656 0-3-1.344-3-3zm17.732-17.45h2.536c.956 0 1.732.776 1.732 1.732v18.536c0 .956-.776 1.732-1.732 1.732h-2.536c-.956 0-1.732-.776-1.732-1.732v-18.536c0-.956.776-1.732 1.732-1.732zm-1.455-9.701c-1.503 1.503-1.503 3.943 0 5.446 1.503 1.503 3.943 1.503 5.446 0 1.503-1.503 1.503-3.943 0-5.446-1.503-1.503-3.943-1.503-5.446 0z" fill="url(#a)" fill-rule="evenodd"/></svg>