<svg height="42" viewBox="0 0 42 42" width="42" xmlns="http://www.w3.org/2000/svg"><path d="m34.492 551.862 3-.012.008 4.039-3-.025v8.225c0 1.956.494 2.935 1.744 2.935.881 0 1.256-.248 2.256-.743v4.378c-1 .584-2.336.876-3.812.876-2.07 0-3.502-.761-4.299-2.277-.596-1.14-.889-2.935-.889-5.387l-.005-8.035s-1.968.032-1.968.048l-.027-4.02h2c-.005 0-.033-3.955-.037-4.011l5.037-.015v4.025zm-13.992 19v-19h5v19zm-10.628-19.295c-1.932 0-3.593.656-4.985 1.97-1.448 1.401-2.173 3.152-2.173 5.254 0 1.401.481 2.712 1.276 3.938.709 1.138 1.51 1.869 2.51 2.188v.089c-1 .407-1.406 1.431-1.406 3.063 0 1.255.406 2.188 1.406 2.803v.088c-3 .904-4 2.582-4 5.033 0 2.131.86 3.691 2.62 4.688 1.393.787 3.156 1.182 5.314 1.182 5.256 0 7.881-2.264 7.881-6.787 0-2.831-2.035-4.568-6.098-5.21-.938-.146-1.647-.495-2.13-1.05-.37-.379-.556-.758-.556-1.139 0-1.08.567-1.707 1.703-1.883 1.732-.263 3.146-1.09 4.239-2.477 1.094-1.387 1.641-3.012 1.641-4.88 0-.584-.102-1.211-.33-1.882.738-.176 1.715-.336 1.715-.481v-4.509c-2 .7-3.377 1.049-4.74 1.049-1.193-.698-2.495-1.047-3.887-1.047zm.171 4.026c.852 0 1.521.337 2.003 1.008.397.613.597 1.344.597 2.19 0 2.043-.867 3.063-2.6 3.063-1.79 0-2.685-1.008-2.685-3.021 0-2.16.895-3.24 2.685-3.24zm.297 17.82c2.386 0 3.581.744 3.581 2.232 0 1.576-1.095 2.363-3.281 2.363-2.499 0-3.75-.762-3.75-2.277 0-1.547 1.15-2.318 3.45-2.318zm15.607-28.289c0 1.801-1.325 3.262-2.961 3.262s-2.961-1.461-2.961-3.262 1.325-3.262 2.961-3.262 2.961 1.461 2.961 3.262z" transform="translate(0 -540.3622)"/></svg>