<?xml version="1.0" encoding="UTF-8" standalone="no"?>
<svg 
    role="img" 
    xmlns="http://www.w3.org/2000/svg" 
    width="1000mm"
    height="1000mm"
    viewBox="0 0 1000 1000"
    style="max-width:1.6em; height: auto;">
    
    <path 
        id="path" 
        style="opacity:1;vector-effect:none;fill:#000000;fill-opacity:1;"
        d=" M 491 69C 491 69 491 69 491 69C 524 69 555 75 588 84C 614 92 639 103 655 118C 671 132 679 149 679 172C 679 172 681 369 681 369C 682 416 641 465 594 465C 594 465 404 465 404 465C 325 465 250 537 250 618C 250 618 250 679 250 679C 250 679 176 679 176 679C 150 679 134 670 120 655C 107 639 96 616 89 588C 69 507 68 449 89 388C 99 357 111 327 124 312C 137 297 150 287 176 287C 176 287 507 288 507 288C 507 288 507 251 507 251C 507 251 288 251 288 251C 288 251 288 172 288 172C 288 148 300 134 316 119C 333 105 366 91 390 84C 427 74 460 69 491 69M 373 117C 373 117 373 117 373 117C 352 117 334 135 334 157C 334 178 352 196 373 196C 395 196 412 178 412 157C 412 135 395 117 373 117M 751 323C 751 323 751 323 751 323C 751 323 826 323 826 323C 851 323 867 332 881 348C 895 363 905 386 912 414C 933 496 933 553 912 615C 902 645 891 675 878 690C 865 705 852 715 826 715C 826 715 494 714 494 714C 494 714 494 751 494 751C 494 751 714 751 714 751C 714 751 714 830 714 830C 714 855 702 869 685 883C 669 897 636 911 611 918C 535 940 477 937 413 918C 387 910 363 899 346 885C 330 870 322 853 321 830C 321 830 320 633 320 633C 320 584 345 537 408 537C 408 537 518 537 518 537C 518 537 550 537 550 537C 550 537 588 537 588 537C 675 537 751 457 751 376C 751 376 751 323 751 323M 629 804C 629 804 629 804 629 804C 608 804 590 822 590 843C 590 865 608 883 629 883C 651 883 669 865 669 843C 669 822 651 804 629 804"
        transform="">
    </path>    
</svg>